<?xml version="1.0" encoding="utf-8"?>
<!-- Generator: Adobe Illustrator 22.1.0, SVG Export Plug-In . SVG Version: 6.00 Build 0)  -->
<svg version="1.1" id="Layer_1" xmlns="http://www.w3.org/2000/svg" xmlns:xlink="http://www.w3.org/1999/xlink" x="0px" y="0px"
	 viewBox="0 0 1920 1080" style="enable-background:new 0 0 1920 1080;" xml:space="preserve">
<style type="text/css">
	.st0{fill:none;}
	.st1{font-family:'Gabriola';}
	.st2{font-size:132.1552px;}
</style>
<g>
	<g>
		<path d="M813.5,138.9c-7.6,69.3-13.3,137.4-17,206.7s-5,138.4-5,207.7c0,34.2,0.7,69.3,1.9,103.3c1.9,34.2,5.7,68.3,15.8,97.2
			c5,14.9,12.1,27.9,20.3,38.5c8.3,10.6,18.9,18.3,29.8,21.9c22.2,8.7,46.8,3.6,67.7-9.6c21.5-13.2,39.8-35.9,54.9-61.4
			c7.6-13.2,15.2-26.2,22.2-41.2c6.4-14.9,13.3-28.9,19.6-43.8c24.6-59.7,44.9-122.7,59.4-187.5c13.9-65.7,22.7-133.1,25.3-202.4
			c1.9-68.3-1.2-137.4-10.7-204.1h16.4c-10.7,65.7-15.8,132.3-18.3,199.7c-1.2,34.2-1.9,67.4-2.6,101.6s-1.2,68.3-0.7,101.6
			c0,34.2,1.2,67.4,3.8,100.8c1.2,16.6,3.1,33.2,5,49.8c2.6,16.6,5,32.5,8.8,49.1c3.8,15.9,8.3,31.5,17,42.1
			c8.8,10.6,20.8,14.9,32.9,12.3c12.1-1.7,23.4-8.7,33.6-17.6c10.7-8.7,20.3-18.3,29.8-29.8c-8.8,11.3-18.3,22.8-28.4,31.5
			c-10.2,8.7-21.5,16.6-34.1,20.2c-12.1,3.6-26,0-36.7-11.3c-10.2-11.3-15.8-28.9-19.6-44.7c-3.8-16.6-7.6-32.5-10.7-49.1
			c-2.6-16.6-5-33.2-6.9-50.8c-3.1-34.2-5-68.3-5.7-102.5s-0.7-68.3-0.7-102.5s0-68.3,0.7-102.5s1.9-68.3,4.5-102.5
			c2.6-34.2,6.4-68.3,12.1-101.6c1.2-6,5.7-10.6,10.2-8.7c3.1,0.9,5.7,4.3,6.4,8.7l0,0c10.7,69.3,15.2,140.1,12.6,210.3
			c-2.6,70.2-11.4,140.1-25.3,208.4c-14.5,67.4-35.5,132.3-61.3,193.5c-13.3,29.8-26.5,60.4-43.6,87.6s-37.4,51.7-62,67.4
			c-24.6,14.9-52.5,20.2-79,9.6c-13.3-5.3-25.3-14.9-35.5-27.9c-10.2-13-17.7-28.9-23.4-45.5c-10.7-34.2-14.5-70-15.8-105.2
			c-0.7-35.1-0.7-70-0.7-105.2c0.7-35.1,1.2-70,3.1-104.2c1.9-35.1,3.8-69.3,6.9-104.2C795.7,276.3,803.3,207.2,813.5,138.9z"/>
	</g>
	<g>
		<path d="M1247.7,924.6c-17.7-27.2-35.5-52.5-55.6-76.3c-20.3-22.8-41.7-43.8-65.8-55.1c-12.1-5.3-24.6-8.7-37.4-7.9
			c-12.6,0.9-24.6,6-36,14.9c-11.4,8.7-21.5,19.3-32.2,29.8c-10.7,10.6-22.2,20.2-33.6,28.9c-22.7,18.3-46.1,34.2-70.2,48.1
			c-12.1,7-24.1,14-36.7,19.3c-12.6,5.3-25.3,9.6-39.3,8.7c-26.5-4.3-50.6-24.5-68.9-50.8c-18.3-26.2-32.2-57-43-90.2
			c12.1,31.5,26.5,62.1,45.5,86.7c18.3,25.5,41.7,43.8,67,47.4c12.6,0.9,25.3-4.3,37.4-8.7c12.1-5.3,24.6-12.3,36-19.3
			c24.1-14,47.3-30.6,69.6-48.1c11.4-8.7,22.2-18.3,32.9-27.9c10.7-9.6,21.5-20.2,32.9-29.8c11.4-8.7,25.3-14.9,38.6-14.9
			c13.3-0.9,26.5,2.6,39.3,8.7c25.3,12.3,46.8,34.2,66.5,57.8C1213.6,870.3,1231.3,896.5,1247.7,924.6z"/>
	</g>
</g>
<rect x="690" y="935.2" class="st0" width="681.8" height="224.7"/>
<text transform="matrix(0.912 0 0 1 690.0146 1022.8398)" class="st1 st2">Utria Efaludini</text>
</svg>
